<svg width="148" height="38" viewBox="0 0 148 38" fill="#fff" xmlns="http://www.w3.org/2000/svg" class="xl:h-8 xl:w-[125px]"><path class="logo_inline_svg__cls-1" d="M11.09 14.86V6.57L7.38 4.38V22.8l6.15-2.88.01 4.03-9.81 4.88V2.17L.04 0 0 30.73l3.56 2.39 13.69-6.8-.02-7.84-6.14-3.62zM35.06 16.13a3.21 3.21 0 00-1.42-1 6.33 6.33 0 00-2.07-.3 6.64 6.64 0 00-2.45.61v-3.29l-3-1.59v16.16h4.43a10.47 10.47 0 002.64-.29 3.81 3.81 0 001.75-1 3.91 3.91 0 001-1.83 11.13 11.13 0 00.3-2.81 12.56 12.56 0 00-.35-2.79 4.61 4.61 0 00-.83-1.87zM33 22.22a2.41 2.41 0 01-.41 1 1.62 1.62 0 01-.8.57 4 4 0 01-1.24.17L30 24l-.86-.07v-6.08l.32-.07a6.12 6.12 0 011.72-.23c1.28 0 1.91 1 1.91 3.07a10.28 10.28 0 01-.09 1.6zM41.79 15.1h-3v11.35h3v-7.61l.46-.15c.44-.14.92-.28 1.44-.41s1.09-.27 1.71-.39v-3.06a11.83 11.83 0 00-3.63 1.47zM52.19 14.83a6.3 6.3 0 00-2.45.42 3.94 3.94 0 00-1.62 1.19 4.87 4.87 0 00-.88 1.86 10.21 10.21 0 00-.24 2.45q0 6 5.22 6t5.22-6a7 7 0 00-1.2-4.37 4.77 4.77 0 00-4.05-1.55zm1.68 8.5a1.74 1.74 0 01-1.68.8 2 2 0 01-1.17-.3 2 2 0 01-.64-.8 3.56 3.56 0 01-.27-1.09 11.85 11.85 0 01-.06-1.19 5.35 5.35 0 01.46-2.55 2.18 2.18 0 013.36 0 5.37 5.37 0 01.45 2.55 5.56 5.56 0 01-.45 2.58zM71.17 23.86h-.54l-1.73-8.54h-3.13l-1.73 8.54h-.54l-1.39-8.76h-3l2.16 11.35h4.77l1.29-6.95 1.3 6.95h4.76l2.16-11.35h-2.99l-1.39 8.76zM85.59 20.62a3 3 0 00-1-.67 6.81 6.81 0 00-1.59-.42c-.62-.11-1.12-.2-1.49-.29a5.51 5.51 0 01-.78-.21.64.64 0 01-.46-.62.69.69 0 01.34-.63 3.18 3.18 0 011.46-.21q.57 0 1.53.09c.64.06 1.44.16 2.4.28v-2.52l-.75-.14c-.77-.15-1.46-.26-2.08-.33a13.89 13.89 0 00-1.57-.1 6.1 6.1 0 00-1.76.23 3.84 3.84 0 00-1.39.68 3.25 3.25 0 00-.91 1.13 3.64 3.64 0 00-.33 1.59 4.59 4.59 0 00.26 1.52 2.38 2.38 0 00.65 1 3.05 3.05 0 001.09.64 8.94 8.94 0 001.54.37 13.1 13.1 0 012.18.5.68.68 0 01.41.64.67.67 0 01-.39.63 3.29 3.29 0 01-1.5.23q-.56 0-1.53-.09c-.64-.06-1.44-.15-2.39-.27l-.09 2.54.72.13a19.48 19.48 0 003.64.41q4.56 0 4.56-3.67a5.05 5.05 0 00-.18-1.44 2.36 2.36 0 00-.59-1zM93.35 14.83c-3.34 0-5 2-5 6.1a6.82 6.82 0 001.16 4.43 4.64 4.64 0 003.73 1.36 20 20 0 004.72-.63v-2.25l-.63.07c-1.11.09-2.36.13-3.77.13a2.28 2.28 0 01-1.55-.46 2 2 0 01-.54-1.51h6.67L98.3 20q0-5.17-4.95-5.17zm-2 4.92a3.15 3.15 0 01.46-1.87 1.87 1.87 0 011.53-.56 1.81 1.81 0 011.51.54 3.13 3.13 0 01.42 1.89zM103.84 15.1h-3v11.35h3v-7.61l.46-.15c.44-.14.92-.28 1.44-.41s1.09-.27 1.71-.39v-3.06a11.83 11.83 0 00-3.63 1.47zM109.74 10.56h3.04v15.89h-3.04zM120.53 14.83q-5 0-5 6.1a6.82 6.82 0 001.16 4.43 4.62 4.62 0 003.72 1.36 20 20 0 004.73-.63l-.05-2.25-.64.07c-1.1.09-2.36.13-3.76.13a2.26 2.26 0 01-1.55-.46 2 2 0 01-.54-1.51h6.67l.23-2.11q-.02-5.13-4.97-5.13zm-2 4.92a3.14 3.14 0 01.47-1.87 1.85 1.85 0 011.53-.56 1.81 1.81 0 011.51.54 3.13 3.13 0 01.42 1.89zM135.74 20.62a3 3 0 00-1-.67 6.9 6.9 0 00-1.55-.42c-.62-.11-1.11-.2-1.48-.29a5.37 5.37 0 01-.79-.21.63.63 0 01-.45-.62.68.68 0 01.34-.63 3.1 3.1 0 011.45-.21q.57 0 1.53.09c.65.06 1.45.16 2.4.28v-2.52l-.75-.14c-.78-.15-1.47-.26-2.08-.33a14 14 0 00-1.58-.1 6.15 6.15 0 00-1.76.23 3.72 3.72 0 00-1.38.68 3.14 3.14 0 00-.91 1.13 3.64 3.64 0 00-.33 1.59 4.61 4.61 0 00.21 1.51 2.48 2.48 0 00.65 1 3.14 3.14 0 001.09.64 8.94 8.94 0 001.54.37 12.83 12.83 0 012.18.5.71.71 0 010 1.27 3.35 3.35 0 01-1.5.23q-.57 0-1.53-.09t-2.4-.27l-.09 2.54.73.13a19.39 19.39 0 003.63.41q4.56 0 4.56-3.67a5.05 5.05 0 00-.18-1.44 2.36 2.36 0 00-.55-.99zM147.39 21.61a2.36 2.36 0 00-.59-1 2.92 2.92 0 00-1.05-.67 6.81 6.81 0 00-1.54-.42c-.62-.11-1.12-.2-1.49-.29a5.51 5.51 0 01-.78-.21.63.63 0 01-.45-.62.68.68 0 01.34-.63 3.1 3.1 0 011.45-.21q.57 0 1.53.09c.64.06 1.44.16 2.4.28v-2.52l-.75-.14q-1.16-.22-2.07-.33a14.19 14.19 0 00-1.58-.1 6.1 6.1 0 00-1.76.23 3.84 3.84 0 00-1.39.68 3.25 3.25 0 00-.91 1.13 3.64 3.64 0 00-.32 1.59 4.61 4.61 0 00.21 1.51 2.38 2.38 0 00.65 1 3.14 3.14 0 001.09.64A8.94 8.94 0 00142 22a13.1 13.1 0 012.18.5.68.68 0 01.41.64.67.67 0 01-.39.63 3.27 3.27 0 01-1.49.23c-.38 0-.89 0-1.54-.09s-1.44-.15-2.39-.27l-.09 2.54.72.13a19.48 19.48 0 003.64.41q4.56 0 4.56-3.67a5.05 5.05 0 00-.22-1.44z"></path></svg>
